<svg width="84" height="35" viewBox="0 0 84 35" fill="none" xmlns="http://www.w3.org/2000/svg">
<path d="M19.3559 3.46135C19.8519 3.55735 20.2199 3.72535 20.4599 3.96535C20.7159 4.20535 20.8439 4.48535 20.8439 4.80535C20.8439 5.33335 20.6919 5.71735 20.3879 5.95735C20.0999 6.19735 19.6359 6.29335 18.9959 6.24535C17.5559 6.13335 16.4279 6.06135 15.6119 6.02935C14.8119 5.98135 13.7559 5.94935 12.4439 5.93335C11.8519 8.87735 11.3079 11.8373 10.8119 14.8133C10.6359 15.9013 10.4519 17.1653 10.2599 18.6053C10.0679 20.0293 9.93988 21.1813 9.87588 22.0613C9.84388 22.5253 9.65188 22.8853 9.29988 23.1413C8.94788 23.3813 8.52388 23.5013 8.02788 23.5013C7.49988 23.5013 7.09188 23.3733 6.80388 23.1173C6.51588 22.8613 6.37188 22.5253 6.37188 22.1093C6.37188 21.7253 6.42788 21.0933 6.53988 20.2133C6.66788 19.3173 6.81188 18.3813 6.97188 17.4053C7.14788 16.4293 7.28388 15.5813 7.37988 14.8613C7.55588 13.6453 7.75588 12.4373 7.97988 11.2373C8.20388 10.0373 8.42788 8.90135 8.65188 7.82935C8.69988 7.58935 8.75588 7.31735 8.81988 7.01335C8.88388 6.69335 8.95588 6.34135 9.03588 5.95735C7.46788 6.00535 6.23588 6.13335 5.33988 6.34135C4.44388 6.54935 3.80388 6.84535 3.41988 7.22935C3.05188 7.59735 2.86788 8.07735 2.86788 8.66935C2.86788 9.21335 3.02788 9.73335 3.34788 10.2293C3.41188 10.3413 3.44388 10.4613 3.44388 10.5893C3.44388 10.8933 3.25988 11.1813 2.89188 11.4533C2.53988 11.7093 2.17188 11.8373 1.78788 11.8373C1.51588 11.8373 1.29188 11.7573 1.11588 11.5973C0.795879 11.3253 0.531879 10.9413 0.323879 10.4453C0.115879 9.93335 0.0118788 9.35735 0.0118788 8.71735C0.0118788 7.35735 0.451879 6.26935 1.33188 5.45335C2.22788 4.62135 3.57988 4.01335 5.38788 3.62935C7.21188 3.24535 9.54788 3.05335 12.3959 3.05335C14.1559 3.05335 15.5559 3.08535 16.5959 3.14935C17.6519 3.21335 18.5719 3.31735 19.3559 3.46135ZM30.3783 18.0293C30.5863 18.0293 30.7463 18.1253 30.8583 18.3173C30.9863 18.5093 31.0503 18.7733 31.0503 19.1093C31.0503 19.7493 30.8983 20.2453 30.5943 20.5973C29.8583 21.4453 29.0983 22.1413 28.3143 22.6853C27.5463 23.2293 26.6663 23.5013 25.6743 23.5013C24.8583 23.5013 24.2423 23.2693 23.8263 22.8053C23.4103 22.3253 23.2023 21.6373 23.2023 20.7413C23.2023 20.2933 23.3143 19.4933 23.5383 18.3413C23.7463 17.3333 23.8503 16.6373 23.8503 16.2533C23.8503 15.9973 23.7623 15.8693 23.5863 15.8693C23.3783 15.8693 23.0823 16.1413 22.6983 16.6853C22.3143 17.2133 21.9303 17.9173 21.5463 18.7973C21.1623 19.6773 20.8503 20.6053 20.6103 21.5813C20.3063 22.8613 19.5543 23.5013 18.3543 23.5013C17.8743 23.5013 17.5543 23.3333 17.3943 22.9973C17.2503 22.6453 17.1783 22.0213 17.1783 21.1253C17.1783 20.6133 17.1863 20.2053 17.2023 19.9013L17.2263 17.9813C17.2263 15.5173 17.4743 12.9493 17.9703 10.2773C18.4823 7.60535 19.2263 5.36535 20.2023 3.55735C21.1943 1.73335 22.3783 0.821348 23.7543 0.821348C24.4903 0.821348 25.0823 1.14135 25.5303 1.78135C25.9943 2.40535 26.2263 3.22135 26.2263 4.22935C26.2263 5.84535 25.7543 7.52535 24.8103 9.26935C23.8663 10.9973 22.3303 13.0213 20.2023 15.3413C20.1543 16.1733 20.1303 17.0293 20.1303 17.9093C20.6583 16.5493 21.2423 15.4453 21.8823 14.5973C22.5383 13.7333 23.1783 13.1173 23.8023 12.7493C24.4423 12.3813 25.0263 12.1973 25.5543 12.1973C26.5943 12.1973 27.1143 12.7173 27.1143 13.7573C27.1143 14.3813 26.9383 15.5093 26.5863 17.1413C26.2823 18.5333 26.1303 19.4533 26.1303 19.9013C26.1303 20.5413 26.3623 20.8613 26.8263 20.8613C27.1463 20.8613 27.5223 20.6693 27.9543 20.2853C28.4023 19.8853 28.9943 19.2453 29.7303 18.3653C29.9223 18.1413 30.1383 18.0293 30.3783 18.0293ZM23.2503 3.19735C22.9623 3.19735 22.6423 3.61335 22.2903 4.44535C21.9383 5.26135 21.5943 6.37335 21.2583 7.78135C20.9383 9.17335 20.6743 10.6933 20.4663 12.3413C21.4583 11.1733 22.2743 9.90135 22.9143 8.52535C23.5703 7.14935 23.8983 5.90135 23.8983 4.78135C23.8983 4.26935 23.8423 3.87735 23.7303 3.60535C23.6183 3.33335 23.4583 3.19735 23.2503 3.19735ZM30.8091 23.5013C30.2011 23.5013 29.7691 23.1813 29.5131 22.5413C29.2731 21.9013 29.1531 20.8773 29.1531 19.4693C29.1531 17.3893 29.4491 15.4133 30.0411 13.5413C30.1851 13.0773 30.4171 12.7413 30.7371 12.5333C31.0731 12.3093 31.5371 12.1973 32.1291 12.1973C32.4491 12.1973 32.6731 12.2373 32.8011 12.3173C32.9291 12.3973 32.9931 12.5493 32.9931 12.7733C32.9931 13.0293 32.8731 13.6053 32.6331 14.5013C32.4731 15.1413 32.3451 15.7013 32.2491 16.1813C32.1531 16.6613 32.0731 17.2533 32.0091 17.9573C32.5371 16.5813 33.1291 15.4613 33.7851 14.5973C34.4411 13.7333 35.0811 13.1173 35.7051 12.7493C36.3451 12.3813 36.9291 12.1973 37.4571 12.1973C38.4971 12.1973 39.0171 12.7173 39.0171 13.7573C39.0171 13.9653 38.9451 14.4693 38.8011 15.2693C38.6731 15.9093 38.6091 16.3093 38.6091 16.4693C38.6091 17.0293 38.8091 17.3093 39.2091 17.3093C39.6571 17.3093 40.2331 16.9573 40.9371 16.2533C41.1451 16.0453 41.3611 15.9413 41.5851 15.9413C41.7931 15.9413 41.9531 16.0373 42.0651 16.2293C42.1931 16.4053 42.2571 16.6453 42.2571 16.9493C42.2571 17.5413 42.0971 18.0053 41.7771 18.3413C41.3291 18.8053 40.8011 19.2053 40.1931 19.5413C39.6011 19.8613 38.9691 20.0213 38.2971 20.0213C37.4491 20.0213 36.8011 19.8053 36.3531 19.3733C35.9211 18.9413 35.7051 18.3573 35.7051 17.6213C35.7051 17.3813 35.7291 17.1413 35.7771 16.9013C35.8091 16.5813 35.8251 16.3653 35.8251 16.2533C35.8251 15.9973 35.7371 15.8693 35.5611 15.8693C35.3211 15.8693 35.0011 16.1413 34.6011 16.6853C34.2171 17.2133 33.8331 17.9173 33.4491 18.7973C33.0651 19.6773 32.7531 20.6053 32.5131 21.5813C32.3371 22.3333 32.1291 22.8453 31.8891 23.1173C31.6651 23.3733 31.3051 23.5013 30.8091 23.5013ZM43.171 10.6133C42.499 10.6133 41.995 10.4613 41.659 10.1573C41.323 9.83735 41.155 9.39735 41.155 8.83735C41.155 8.27735 41.371 7.81335 41.803 7.44535C42.251 7.06135 42.803 6.86935 43.459 6.86935C44.051 6.86935 44.531 7.01335 44.899 7.30135C45.267 7.58935 45.451 7.99735 45.451 8.52535C45.451 9.16535 45.243 9.67735 44.827 10.0613C44.411 10.4293 43.859 10.6133 43.171 10.6133ZM42.979 23.5013C41.939 23.5013 41.179 23.1333 40.699 22.3973C40.235 21.6613 40.003 20.6853 40.003 19.4693C40.003 18.7493 40.091 17.8293 40.267 16.7093C40.459 15.5733 40.699 14.5173 40.987 13.5413C41.131 13.0293 41.323 12.6773 41.563 12.4853C41.803 12.2933 42.187 12.1973 42.715 12.1973C43.531 12.1973 43.939 12.4693 43.939 13.0133C43.939 13.4133 43.787 14.3413 43.483 15.7973C43.099 17.5573 42.907 18.7493 42.907 19.3733C42.907 19.8533 42.971 20.2213 43.099 20.4773C43.227 20.7333 43.443 20.8613 43.747 20.8613C44.035 20.8613 44.395 20.6613 44.827 20.2613C45.259 19.8613 45.835 19.2293 46.555 18.3653C46.747 18.1413 46.963 18.0293 47.203 18.0293C47.411 18.0293 47.571 18.1253 47.683 18.3173C47.811 18.5093 47.875 18.7733 47.875 19.1093C47.875 19.7493 47.723 20.2453 47.419 20.5973C45.835 22.5333 44.355 23.5013 42.979 23.5013ZM58.0476 16.0853C58.0956 16.0693 58.1756 16.0613 58.2876 16.0613C58.5276 16.0613 58.7116 16.1413 58.8396 16.3013C58.9676 16.4613 59.0316 16.6773 59.0316 16.9493C59.0316 17.4453 58.9356 17.8373 58.7436 18.1253C58.5516 18.3973 58.2636 18.5973 57.8796 18.7253C57.1436 18.9653 56.3596 19.0853 55.5276 19.0853C54.8236 19.0853 54.1596 18.9893 53.5356 18.7973C53.0716 19.5493 52.5596 20.3253 51.9996 21.1253C51.3596 22.0373 50.8076 22.6613 50.3436 22.9973C49.8796 23.3333 49.3516 23.5013 48.7596 23.5013C48.1036 23.5013 47.5836 23.2453 47.1996 22.7333C46.8316 22.2213 46.5996 21.4133 46.5036 20.3093C46.3116 18.0693 46.2156 16.1093 46.2156 14.4293V13.5893C46.2316 13.0613 46.3756 12.6933 46.6476 12.4853C46.9196 12.2773 47.3276 12.1733 47.8716 12.1733C48.2876 12.1733 48.5916 12.2693 48.7836 12.4613C48.9916 12.6373 49.0956 12.9413 49.0956 13.3733C49.0956 15.2133 49.2076 17.6053 49.4316 20.5493C50.3916 19.1253 51.1116 17.9893 51.5916 17.1413C51.3516 16.6773 51.2316 16.1253 51.2316 15.4853C51.2316 14.9413 51.3516 14.4133 51.5916 13.9013C51.8316 13.3893 52.1596 12.9733 52.5756 12.6533C52.9916 12.3333 53.4636 12.1733 53.9916 12.1733C54.4556 12.1733 54.8316 12.3413 55.1196 12.6773C55.4076 12.9973 55.5516 13.4693 55.5516 14.0933C55.5516 14.8133 55.3596 15.6373 54.9756 16.5653C55.5836 16.5333 56.3916 16.4133 57.3996 16.2053L58.0476 16.0853ZM67.6529 18.0293C67.8609 18.0293 68.0209 18.1253 68.1329 18.3173C68.2609 18.5093 68.3249 18.7733 68.3249 19.1093C68.3249 19.7493 68.1729 20.2453 67.8689 20.5973C67.2769 21.3173 66.4369 21.9813 65.3489 22.5893C64.2769 23.1973 63.1249 23.5013 61.8929 23.5013C60.2129 23.5013 58.9089 23.0453 57.9809 22.1333C57.0529 21.2213 56.5889 19.9733 56.5889 18.3893C56.5889 17.2853 56.8209 16.2613 57.2849 15.3173C57.7489 14.3573 58.3889 13.5973 59.2049 13.0373C60.0369 12.4773 60.9729 12.1973 62.0129 12.1973C62.9409 12.1973 63.6849 12.4773 64.2449 13.0373C64.8049 13.5813 65.0849 14.3253 65.0849 15.2693C65.0849 16.3733 64.6849 17.3253 63.8849 18.1253C63.1009 18.9093 61.7649 19.5333 59.8769 19.9973C60.2769 20.7333 61.0369 21.1013 62.1569 21.1013C62.8769 21.1013 63.6929 20.8533 64.6049 20.3573C65.5329 19.8453 66.3329 19.1813 67.0049 18.3653C67.1969 18.1413 67.4129 18.0293 67.6529 18.0293ZM61.6049 14.5493C61.0129 14.5493 60.5089 14.8933 60.0929 15.5813C59.6929 16.2693 59.4929 17.1013 59.4929 18.0773V18.1253C60.4369 17.9013 61.1809 17.5653 61.7249 17.1173C62.2689 16.6693 62.5409 16.1493 62.5409 15.5573C62.5409 15.2533 62.4529 15.0133 62.2769 14.8373C62.1169 14.6453 61.8929 14.5493 61.6049 14.5493ZM75.4667 18.0293C75.6747 18.0293 75.8347 18.1253 75.9467 18.3173C76.0747 18.5093 76.1387 18.7733 76.1387 19.1093C76.1387 19.7493 75.9867 20.2453 75.6827 20.5973C74.9947 21.4453 74.2427 22.1413 73.4267 22.6853C72.6267 23.2293 71.7148 23.5013 70.6907 23.5013C69.2827 23.5013 68.2347 22.8613 67.5467 21.5813C66.8747 20.3013 66.5387 18.6453 66.5387 16.6133C66.5387 14.6613 66.7867 12.4373 67.2827 9.94135C67.7947 7.44535 68.5387 5.30135 69.5147 3.50935C70.5067 1.71735 71.6827 0.821348 73.0427 0.821348C73.8107 0.821348 74.4107 1.18135 74.8427 1.90135C75.2907 2.60535 75.5147 3.62135 75.5147 4.94935C75.5147 6.85335 74.9867 9.06135 73.9307 11.5733C72.8747 14.0853 71.4427 16.5733 69.6348 19.0373C69.7467 19.6933 69.9307 20.1653 70.1868 20.4533C70.4427 20.7253 70.7787 20.8613 71.1947 20.8613C71.8507 20.8613 72.4267 20.6773 72.9227 20.3093C73.4187 19.9253 74.0507 19.2773 74.8187 18.3653C75.0107 18.1413 75.2267 18.0293 75.4667 18.0293ZM72.5147 3.19735C72.1467 3.19735 71.7307 3.86135 71.2667 5.18935C70.8027 6.51735 70.3947 8.16535 70.0427 10.1333C69.6907 12.1013 69.4987 13.9893 69.4667 15.7973C70.6027 13.9253 71.5067 12.0533 72.1787 10.1813C72.8507 8.29335 73.1867 6.57335 73.1867 5.02135C73.1867 3.80535 72.9627 3.19735 72.5147 3.19735ZM82.5989 12.1973C82.9669 12.1973 83.2229 12.2453 83.3669 12.3413C83.5109 12.4373 83.5829 12.5973 83.5829 12.8213C83.5829 13.2053 83.3749 14.5733 82.9589 16.9253C82.5909 19.1813 82.3749 20.5173 82.3109 20.9333C81.7189 25.0453 80.9029 28.3013 79.8629 30.7013C78.8229 33.1013 77.4389 34.3013 75.7109 34.3013C74.8949 34.3013 74.2309 34.0453 73.7189 33.5333C73.2069 33.0373 72.9509 32.3813 72.9509 31.5653C72.9509 30.8133 73.1189 30.0453 73.4549 29.2613C73.8069 28.4773 74.4469 27.5733 75.3749 26.5493C76.3189 25.5413 77.6469 24.3813 79.3589 23.0693L79.4309 22.5173C79.5429 21.9253 79.6709 21.0773 79.8149 19.9733C79.4949 21.1253 79.0469 22.0053 78.4709 22.6133C77.8949 23.2053 77.2869 23.5013 76.6469 23.5013C75.9269 23.5013 75.3349 23.1733 74.8709 22.5173C74.4229 21.8453 74.1989 21.0133 74.1989 20.0213C74.1989 18.8213 74.2789 17.7253 74.4389 16.7333C74.5989 15.7253 74.8629 14.6613 75.2309 13.5413C75.3909 13.0613 75.6149 12.7173 75.9029 12.5093C76.1909 12.3013 76.6469 12.1973 77.2709 12.1973C77.6229 12.1973 77.8629 12.2533 77.9909 12.3653C78.1349 12.4773 78.2069 12.6453 78.2069 12.8693C78.2069 12.9973 78.1189 13.4293 77.9429 14.1653C77.7829 14.7573 77.6549 15.2933 77.5589 15.7733C77.4309 16.4293 77.3189 17.0613 77.2229 17.6693C77.1269 18.2613 77.0789 18.7493 77.0789 19.1333C77.0789 19.7413 77.2469 20.0453 77.5829 20.0453C77.8229 20.0453 78.1189 19.8053 78.4709 19.3253C78.8389 18.8453 79.2229 18.1173 79.6229 17.1413C80.0389 16.1653 80.4389 14.9653 80.8229 13.5413C80.9509 13.0613 81.1429 12.7173 81.3989 12.5093C81.6709 12.3013 82.0709 12.1973 82.5989 12.1973ZM75.9749 31.9733C76.3749 31.9733 76.8229 31.5093 77.3189 30.5813C77.8149 29.6533 78.3109 28.1093 78.8069 25.9493C77.5749 26.9893 76.6789 27.9333 76.1189 28.7813C75.5749 29.6453 75.3029 30.3973 75.3029 31.0373C75.3029 31.3093 75.3509 31.5333 75.4469 31.7093C75.5589 31.8853 75.7349 31.9733 75.9749 31.9733Z" fill="#45193B"/>
</svg>
